<?xml version="1.0" standalone="no"?><!DOCTYPE svg PUBLIC "-//W3C//DTD SVG 1.1//EN" "http://www.w3.org/Graphics/SVG/1.1/DTD/svg11.dtd"><svg t="1695695890550" class="icon" viewBox="0 0 1024 1024" version="1.1" xmlns="http://www.w3.org/2000/svg" p-id="13009" xmlns:xlink="http://www.w3.org/1999/xlink" width="32" height="32"><path d="M248.565197 0m87.155159 0l-0.073117 0q87.155159 0 87.155159 87.155159l0 461.512888q0 87.155159-87.155159 87.155159l0.073117 0q-87.155159 0-87.155159-87.155159l0-461.512888q0-87.155159 87.155159-87.155159Z" fill="#ECD1B7" p-id="13010"></path><path d="M393.5557 238.287469m88.325027 0l-0.073117 0q88.325027 0 88.325027 88.325027l0 220.9588q0 88.325027-88.325027 88.325027l0.073117 0q-88.325027 0-88.325027-88.325027l0-220.9588q0-88.325027 88.325027-88.325027Z" fill="#ECD1B7" p-id="13011"></path><path d="M544.103076 265.852481m88.325027 0l-0.073117 0q88.325027 0 88.325027 88.325027l0 193.320671q0 88.325027-88.325027 88.325027l0.073117 0q-88.325027 0-88.325027-88.325027l0-193.320671q0-88.325027 88.325027-88.325027Z" fill="#ECD1B7" p-id="13012"></path><path d="M713.368339 295.903463m73.701678 0l-0.073117 0q73.701678 0 73.701678 73.701678l0 214.45141q0 73.701678-73.701678 73.701678l0.073117 0q-73.701678 0-73.701678-73.701678l0-214.45141q0-73.701678 73.701678-73.701678Z" fill="#ECD1B7" p-id="13013"></path><path d="M50.888014 424.419219m58.038095-45.425949l0.057578-0.045065q58.038095-45.425949 103.464044 12.612146l132.176893 168.874736q45.425949 58.038095-12.612147 103.464044l-0.057577 0.045065q-58.038095 45.425949-103.464044-12.612146l-132.176893-168.874736q-45.425949-58.038095 12.612146-103.464044Z" fill="#ECD1B7" p-id="13014"></path><path d="M220.488367 332.315602m276.67376 0l86.423991 0q276.673759 0 276.673759 276.673759l0-0.073117q0 276.673759-276.673759 276.67376l-86.423991 0q-276.673759 0-276.67376-276.67376l0 0.073117q0-276.673759 276.67376-276.673759Z" fill="#ECD1B7" p-id="13015"></path><path d="M194.312573 813.423777m40.287326 0l569.725669 0q40.287326 0 40.287326 40.287326l0 130.001571q0 40.287326-40.287326 40.287326l-569.725669 0q-40.287326 0-40.287326-40.287326l0-130.001571q0-40.287326 40.287326-40.287326Z" fill="#46466F" p-id="13016"></path><path d="M764.403826 958.19493m-28.223063 0a28.223063 28.223063 0 1 0 56.446126 0 28.223063 28.223063 0 1 0-56.446126 0Z" fill="#FFFFFF" p-id="13017"></path></svg>